PathFileType	4	(X/Y/Z)	./resultDataOpenSim/trcMotMarkerGrf/sub09/qtm-03-02.trc
DataRate	CameraRate	NumFrames	NumMarkers	Units	OrigDataRate	OrigDataStartFrame	OrigNumFrames
250.000000	250.000000	7	24	m	250.000000	311	496
Frame#	Time	L.Toe.Tip			R.Toe.Tip			L.Ankle.Lat			R.Ankle.Lat			L.Ankle.Med			R.Ankle.Med			L.Heel			R.Heel			L.Knee.Lat			R.Knee.Lat			L.Knee.Med			R.Knee.Med			L.Thigh.Upper			R.Thigh.Upper			L.ASIS			R.ASIS			V.Sacral			L.Acromium			R.Acromium			C7			L.Elbow			R.Elbow			L.Wrist.Lat			R.Wrist.Lat
		X1	Y1	Z1	X2	Y2	Z2	X3	Y3	Z3	X4	Y4	Z4	X5	Y5	Z5	X6	Y6	Z6	X7	Y7	Z7	X8	Y8	Z8	X9	Y9	Z9	X10	Y10	Z10	X11	Y11	Z11	X12	Y12	Z12	X13	Y13	Z13	X14	Y14	Z14	X15	Y15	Z15	X16	Y16	Z16	X17	Y17	Z17	X18	Y18	Z18	X19	Y19	Z19	X20	Y20	Z20	X21	Y21	Z21	X22	Y22	Z22	X23	Y23	Z23	X24	Y24	Z24

311	1.24	0.15541038	-0.0074050222	0.017270883	0.99294421	0.043273711	0.14526908	0.07778388	0.11682291	-0.054950795	0.84448917	0.053406983	0.18010993	0.10434282	0.12201008	0.039503206	0.84951977	0.091996694	0.088232794	0.0041211863	0.13815492	-0.014629087	0.77720174	0.030689771	0.13137799	0.36581793	0.42782221	-0.079798678	0.79100063	0.51258708	0.22220799	0.36762167	0.41851515	0.045294312	0.77634121	0.49135689	0.098819663	0.49799603	0.81616556	-0.098518351	0.55275916	0.83791108	0.27194142	0.60718667	0.89164252	-0.052537134	0.6226678	0.91858466	0.18770012	0.45039651	0.96079221	0.078182835	0.62611878	1.3625707	-0.083090582	0.58352685	1.3618012	0.24430879	0.54045698	1.4121199	0.074904612	0.5225368	0.99984408	-0.16246921	0.42381789	1.0356784	0.31615499	0.76279565	0.87314766	-0.13266017	0.52828403	0.79164428	0.37839692
312	1.244	0.15666832	-0.0064980575	0.016925223	0.99357554	0.042570456	0.14432959	0.082526102	0.12012281	-0.055794753	0.8452906	0.053391173	0.17958961	0.1098293	0.12467404	0.038443825	0.85007808	0.091700259	0.087759753	0.0099185598	0.14330176	-0.014972407	0.77751353	0.03085802	0.131407	0.37560994	0.42689403	-0.080652607	0.79735132	0.51256893	0.22245213	0.37633137	0.41726793	0.044826622	0.7830092	0.4922813	0.098800408	0.50520853	0.81565249	-0.097706117	0.55955126	0.83910159	0.27271306	0.61398838	0.89152991	-0.051534677	0.62940008	0.91969966	0.18837428	0.45609242	0.96119592	0.077474828	0.63307573	1.3628363	-0.082480606	0.59001548	1.3621244	0.24480785	0.54697572	1.4123801	0.075325805	0.52870988	1.0005351	-0.16191133	0.43152186	1.0354261	0.31658237	0.76741912	0.87134999	-0.1322295	0.5366294	0.79167617	0.37833433
313	1.248	0.1581269	-0.0054014752	0.016583483	0.99408926	0.042009402	0.14365231	0.08753536	0.12359596	-0.056481901	0.84586982	0.053325279	0.17909777	0.11557943	0.12749666	0.037556183	0.85045515	0.091414614	0.087358171	0.016129831	0.14867506	-0.015454532	0.77773916	0.030970545	0.13144837	0.38557891	0.42596387	-0.081523031	0.80340834	0.51240519	0.2226526	0.38568406	0.41618965	0.044323317	0.78952392	0.49303357	0.098721399	0.51238501	0.81522407	-0.096865496	0.56635851	0.84023401	0.27346239	0.62072401	0.89151799	-0.050544253	0.63607057	0.92081226	0.18905412	0.4623157	0.96162718	0.077455979	0.64000634	1.3631597	-0.08187353	0.59646495	1.3625048	0.24529285	0.55346744	1.4127279	0.075740334	0.53487983	1.0012945	-0.16136916	0.43931274	1.035219	0.31711014	0.77199035	0.86951287	-0.13180799	0.54499575	0.79176889	0.3782597
314	1.252	0.15976817	-0.0041170456	0.016233726	0.99454202	0.041564607	0.14326632	0.092833079	0.1272646	-0.057018918	0.84626074	0.053215905	0.17866858	0.12155834	0.13048588	0.036850058	0.85074696	0.091158202	0.08701007	0.022709259	0.15425907	-0.015956682	0.77792832	0.031055631	0.13144467	0.39576083	0.42503804	-0.082403693	0.80920156	0.5120992	0.22287228	0.39611993	0.41518155	0.043696165	0.7958488	0.4935986	0.098624351	0.51952075	0.81488382	-0.096033025	0.57316243	0.84130883	0.27419409	0.62741818	0.89162833	-0.04954107	0.64267501	0.92187639	0.18974865	0.46903043	0.96214662	0.077925235	0.6469027	1.3635432	-0.081263947	0.60287437	1.3629426	0.24576395	0.55992317	1.4131683	0.076146595	0.54104271	1.0021146	-0.16083792	0.44707332	1.0350559	0.31760506	0.77650291	0.86763641	-0.13138939	0.5533831	0.79192383	0.37817158
315	1.256	0.16160347	-0.0026367788	0.015872831	0.99495929	0.041211118	0.14308741	0.09846598	0.13114685	-0.057412966	0.84650548	0.053102976	0.17835205	0.12774581	0.13363645	0.036319893	0.85105229	0.09094968	0.08669443	0.029603741	0.15999713	-0.016269562	0.77810848	0.031134657	0.13138295	0.40617796	0.42413547	-0.083268971	0.81476648	0.51170275	0.22312341	0.40735255	0.41394478	0.04294531	0.80193091	0.49397779	0.098529291	0.52661797	0.81463595	-0.095250644	0.57993749	0.84233819	0.27492078	0.63410871	0.89190795	-0.048489013	0.6491992	0.92286672	0.19045142	0.47590934	0.96281087	0.078377101	0.65374857	1.3639888	-0.080654021	0.60924434	1.3634433	0.24621772	0.56633004	1.4137003	0.076536529	0.54720145	1.0029912	-0.16031441	0.45469952	1.0349339	0.3179471	0.7809394	0.86574173	-0.13098543	0.56178704	0.79214637	0.37806486
316	1.26	0.1636613	-0.00095297623	0.015505211	0.99533338	0.040925381	0.14295792	0.10445787	0.13522879	-0.057658716	0.84666138	0.053018342	0.1781681	0.1341438	0.1369388	0.035956509	0.85141606	0.09079013	0.086399518	0.036772226	0.16583034	-0.016221568	0.77827421	0.031211375	0.13129225	0.41673406	0.42328104	-0.084044614	0.82011415	0.51129731	0.22335132	0.41877991	0.41225634	0.042015671	0.80772904	0.49419428	0.098438874	0.53367169	0.81448479	-0.094536434	0.58665075	0.84333184	0.27565163	0.64085473	0.89238321	-0.047321756	0.65563354	0.92377645	0.19115544	0.48272251	0.96359201	0.078663567	0.66052108	1.3644974	-0.080052074	0.61557704	1.3640131	0.24664883	0.57267648	1.4143092	0.076904859	0.55335833	1.0039209	-0.15979515	0.46216787	1.0348511	0.31814462	0.78528383	0.86385128	-0.13061295	0.5702027	0.79244536	0.37793341
317	1.264	0.16596675	0.00093350373	0.015135478	0.99563586	0.040695086	0.14274876	0.11079376	0.13946039	-0.057739118	0.84679757	0.05296576	0.17807242	0.14076905	0.14037884	0.035760914	0.85180345	0.090658213	0.086123937	0.04417995	0.17174205	-0.015756876	0.77840277	0.03127755	0.13120753	0.42734484	0.42248491	-0.084686054	0.82524619	0.51094937	0.22348904	0.42999253	0.41021736	0.040845926	0.8132147	0.49428282	0.098355023	0.5406556	0.81443723	-0.093857113	0.59327408	0.84428718	0.27638487	0.64761586	0.89301577	-0.046074918	0.66197872	0.92460967	0.19185746	0.48944308	0.96440861	0.07907544	0.66719975	1.3650711	-0.079467979	0.62187383	1.3646555	0.24705263	0.57895432	1.4149741	0.077252939	0.55950576	1.0049021	-0.15927627	0.46951501	1.0348093	0.31829644	0.78952925	0.86198005	-0.1302835	0.57862656	0.79282724	0.37777144
